<svg xmlns="http://www.w3.org/2000/svg" viewBox="0 0 80.13 67.43"><title>Asset 1</title><g id="Layer_2" data-name="Layer 2"><g id="Capa_1" data-name="Capa 1"><path d="M48.35,11.57a14.56,14.56,0,0,1,6.78,10.82,11.75,11.75,0,1,0-6.78-10.82Zm-7.7,24.06A11.75,11.75,0,1,0,28.9,23.88,11.75,11.75,0,0,0,40.66,35.64Zm5,.8h-10a15.06,15.06,0,0,0-15,15V63.68l0,.19.84.26A68.49,68.49,0,0,0,42,67.43c11.06,0,17.47-3.15,17.86-3.35l.78-.4h.08V51.48A15.06,15.06,0,0,0,45.64,36.44ZM65.08,24.3h-9.9a14.48,14.48,0,0,1-4.47,10.09A17.88,17.88,0,0,1,63.49,51.5v3.76c9.77-.36,15.4-3.13,15.77-3.31l.79-.4h.08V39.35A15.06,15.06,0,0,0,65.08,24.3Zm-45-.8a11.67,11.67,0,0,0,6.25-1.81,14.54,14.54,0,0,1,5.47-9.28c0-.22,0-.44,0-.66A11.75,11.75,0,1,0,20,23.5ZM30.59,34.39a14.49,14.49,0,0,1-4.47-10c-.37,0-.73-.06-1.1-.06H15a15.06,15.06,0,0,0-15,15v12.2l0,.19L.87,52a70.55,70.55,0,0,0,16.94,3.19V51.5A17.88,17.88,0,0,1,30.59,34.39Z"/></g></g></svg>