<svg xmlns="http://www.w3.org/2000/svg" viewBox="0 0 485.21 363.91"><title>Asset 1</title><g id="Layer_2" data-name="Layer 2"><g id="Capa_1" data-name="Capa 1"><path d="M485.21,303.26a60.11,60.11,0,0,1-7.79,29.17L324.23,161,475.77,28.43a60.21,60.21,0,0,1,9.45,32.22v242.6ZM242.61,192.14,453.47,7.64A59.9,59.9,0,0,0,424.56,0H60.65A59.68,59.68,0,0,0,31.76,7.64ZM301.39,181l-48.81,42.73a15.22,15.22,0,0,1-20,0L183.81,181,28.67,354.58a59.92,59.92,0,0,0,32,9.33H424.56a59.92,59.92,0,0,0,32-9.33ZM9.45,28.43A60.22,60.22,0,0,0,0,60.65v242.6a59.92,59.92,0,0,0,7.79,29.17L161,161Z"/></g></g></svg>