<svg xmlns="http://www.w3.org/2000/svg" viewBox="0 0 52.45 99.5"><title>Asset 1</title><g id="Layer_2" data-name="Layer 2"><g id="Layer_1-2" data-name="Layer 1"><path d="M26.22,65.91A15.45,15.45,0,0,0,41.67,50.46v-35a15.45,15.45,0,1,0-30.9,0v35A15.45,15.45,0,0,0,26.22,65.91Z"/><path d="M49.28,37.63a3.17,3.17,0,0,0-3.17,3.17v9.66a19.89,19.89,0,0,1-39.77,0V40.8A3.17,3.17,0,0,0,0,40.8v9.66a26.22,26.22,0,0,0,52.45,0V40.8A3.17,3.17,0,0,0,49.28,37.63Z"/><path d="M39.29,93.16h-9.9V79a26.29,26.29,0,0,1-3.17.21A26.3,26.3,0,0,1,23.05,79V93.16h-9.9A3.17,3.17,0,0,0,10,96.33V99.5H42.46V96.33A3.17,3.17,0,0,0,39.29,93.16Z"/></g></g></svg>